<svg width="128" height="128" xmlns="http://www.w3.org/2000/svg">
	<g fill="#6b7" stroke="#000" stroke-width="2" stroke-linecap="round" stroke-linejoin="round">
		<path
			d="M53.055 26.672l.487 11.145c.168 3.845 2.451 5.899 6.187 5.668l9.746-.601c1.929-.12 1.274 4.523 3.317 4.12 2.039-.402-.127-3.584.487-4.459.765-1.089 4.681 1.012 4.616-1.397-.056-2.078-4.312-.682-4.483-1.901-.216-1.536 1.787-3.676-.29-4.338-1.764-.563-2.379 4.44-3.871 4.323l-8.14-.645c-.978-.077-1.695-.728-1.636-2.003l.688-14.804M98.851 99.257l11.14.597c3.843.206 5.874 2.51 5.607 6.243l-.699 9.74c-.138 1.927 4.51 1.319 4.088 3.358-.423 2.034-3.583-.163-4.464.442-1.097.754.965 4.691-1.443 4.602-2.077-.077-.64-4.318-1.857-4.502-1.533-.23-3.693 1.751-4.334-.333-.545-1.77 4.464-2.334 4.36-3.828l-.563-8.146c-.068-.978-.712-1.702-1.987-1.655l-14.81.54"
			stroke-width="1.7" />
		<path
			d="M75.46 7.13c7.97-.427 24.572-5.06 30.152 13.92.789 2.685 1.787 6.168 2.34 8.91 2.236 11.1-12.97 16.658-23.438 10.353-5.893-3.55-8.524-7.757-13.93-12.011-18.525-14.58-37.137 17.139-5.799 23.264l26.038 5.09c32.935 6.437 38.915 63.59-16.408 62.968-10.807-.121-20.809-2.232-27.23-14.3-4.13-7.764-8.975-10.01-11.846-10.72-2.834-.699-9.683.172-11.459 6.258-.975 3.344-.136 9.268 6.119 10.75 2.25.533 5.767-.32 7.506-2.633 3.185-4.236 7.386-.999 7.202 1.856-.204 3.174-4.056 7.478-9.215 8.516-12.449 2.505-21.455-7.192-22.122-15.126-1.393-16.57 9.29-23.863 18.534-23.853 15.882.016 20.607 9.797 26.493 14.68 17.815 14.778 38.111-17.24 5.986-23.137L39.13 67.279C7.258 61.429-.619 3.683 53.297 3.979c9.274.05 15.808 3.36 22.163 3.15z"
			stroke-width="1.7" />
		<path
			d="M38.149 26.672l.486 11.145c.168 3.845 2.452 5.899 6.188 5.668l9.746-.601c1.928-.12 1.274 4.523 3.317 4.12 2.038-.402-.128-3.584.486-4.459.765-1.089 4.682 1.012 4.617-1.397-.057-2.078-4.312-.682-4.484-1.901-.215-1.536 1.788-3.676-.29-4.338-1.764-.563-2.378 4.44-3.871 4.323l-8.14-.645c-.977-.077-1.695-.728-1.635-2.003l.687-14.804M88.294 100.052l-11.14.597c-3.842.206-5.874 2.51-5.606 6.243l.698 9.74c.139 1.927-4.51 1.319-4.087 3.358.422 2.034 3.583-.163 4.464.442 1.096.754-.966 4.691 1.443 4.602 2.076-.077.64-4.318 1.856-4.502 1.533-.23 3.693 1.751 4.335-.333.545-1.77-4.464-2.334-4.36-3.828l.563-8.146c.067-.978.711-1.702 1.987-1.655l14.81.54"
			stroke-width="1.7" />
		<path
			d="M98.48 34.436c5.664 4.403 11.878 14.767 4.655 22.564.695-4.393-1.59-7.332-2.452-8.785.69 4.604-3.603 9.787-7.238 8.816 5.231-5.2 1.75-16.008-1.751-21.062"
			fill="#1e90ff" stroke-width="1.7" />
		<path d="M107.885 34.606c-5.112 13.587-25.724 2.04-29.221-5.225" stroke-width="1.7" />
	</g>
	<g transform="matrix(.85 0 0 .85 -678.656 -57.683)">
		<circle cx="897.507" cy="93.942" r="2.606" stroke="#090909" stroke-width="2" />
		<circle r="1.65" cy="92.619" cx="896.184" fill="#fff" />
	</g>
	<g transform="matrix(.85 0 0 .85 -661.902 -58.023)">
		<circle r="2.606" cy="93.942" cx="897.507" stroke="#090909" stroke-width="2" />
		<circle cx="896.184" cy="92.619" r="1.65" fill="#fff" />
	</g>
</svg>