<?xml version="1.0" encoding="UTF-8" standalone="no"?>
	<svg xmlns:xlink="http://www.w3.org/1999/xlink"
	width="128px" height="128px" viewBox="0 0 128 128" xmlns="http://www.w3.org/2000/svg" version="1.1"
	>
  <g
     id="layer1"
     style="display:inline;opacity:1">
    <g
       id="g900"
         transform="scale(.85)translate(-800,-70)"
	   >
      <g
         id="g886"
         transform="translate(165.03894,-1.6036171)"
         style="fill:#8fbc8f">
        <path
           style="fill:#8fbc8f;stroke:#000000;stroke-width:2;stroke-linecap:round;stroke-linejoin:round;stroke-miterlimit:4;stroke-opacity:1"
           d="m 687.37927,102.98243 0.57244,13.11193 c 0.19746,4.52294 2.88404,6.93971 7.27894,6.66841 l 11.46628,-0.70781 c 2.26853,-0.14003 1.49865,5.32163 3.90221,4.84763 2.3979,-0.47289 -0.14997,-4.21676 0.57254,-5.24584 0.89946,-1.28113 5.50756,1.1907 5.43072,-1.64388 -0.0663,-2.44402 -5.07261,-0.80258 -5.27421,-2.2367 -0.25391,-1.80628 2.10286,-4.32413 -0.34113,-5.10334 -2.07576,-0.66181 -2.79871,5.22456 -4.55477,5.08552 l -9.57625,-0.75823 c -1.15001,-0.0911 -1.99392,-0.85673 -1.92425,-2.35703 l 0.80872,-17.415822"
           id="path874" />
        <path
           style="fill:#8fbc8f;stroke:#000000;stroke-width:2;stroke-linecap:round;stroke-linejoin:round;stroke-miterlimit:4;stroke-opacity:1"
           d="m 741.25679,188.37642 13.1056,0.70262 c 4.52076,0.24237 6.91073,2.95282 6.5958,7.34481 l -0.82165,11.45868 c -0.16255,2.26703 5.30649,1.55143 4.80864,3.95016 -0.49668,2.39309 -4.21506,-0.19184 -5.25127,0.52042 -1.28999,0.88669 1.13595,5.51911 -1.69773,5.41413 -2.44325,-0.0906 -0.75217,-5.08034 -2.18422,-5.29617 -1.80366,-0.27183 -4.34479,2.05982 -5.09969,-0.39179 -0.64116,-2.08223 5.25209,-2.74669 5.1305,-4.50404 l -0.6631,-9.58331 c -0.0796,-1.15086 -0.83689,-2.00233 -2.3378,-1.94756 l -17.42302,0.63573"
           id="path876" />
        <path
           id="path878"
           d="m 713.73751,79.991389 c 9.37553,-0.501493 28.90862,-5.952545 35.47271,16.377793 0.92827,3.157893 2.10234,7.255068 2.7526,10.481698 2.63151,13.05767 -15.25916,19.59777 -27.57384,12.18003 -6.93267,-4.17589 -10.02818,-9.12611 -16.38807,-14.13129 -21.79429,-17.151918 -43.69087,20.16354 -6.82209,27.36995 l 30.63317,5.98759 c 38.74695,7.57351 45.78248,74.81281 -19.3039,74.08116 -12.71437,-0.14292 -24.48104,-2.62673 -32.03498,-16.82419 -4.85977,-9.13385 -10.55963,-11.77703 -13.93656,-12.61067 -3.33458,-0.82318 -11.39148,0.20082 -13.48083,7.36138 -1.1479,3.93407 -0.16001,10.90376 7.19828,12.64702 2.64677,0.62706 6.78506,-0.37654 8.83097,-3.098 3.74628,-4.98325 8.6886,-1.17453 8.47271,2.18358 -0.24007,3.73426 -4.77235,8.79833 -10.84185,10.01957 -14.64487,2.94667 -25.24076,-8.46194 -26.02553,-17.79531 -1.6392,-19.49525 10.9307,-28.074 21.80455,-28.06286 18.68533,0.0191 24.24424,11.52654 31.16799,17.27011 20.95959,17.38694 44.83716,-20.2822 7.04237,-27.22003 l -29.70885,-5.45353 c -37.49627,-6.88303 -46.76331,-74.81907 16.66757,-74.471547 10.91018,0.05977 18.59767,3.953325 26.07358,3.707546 z"
           style="fill:#8fbc8f;stroke:#000000;stroke-width:2;stroke-linecap:butt;stroke-linejoin:miter;stroke-miterlimit:4;stroke-opacity:1" />
        <path
           id="path880"
           d="m 669.84209,102.98243 0.57244,13.11193 c 0.19746,4.52294 2.88404,6.93971 7.27894,6.66841 l 11.46628,-0.70781 c 2.26853,-0.14003 1.49865,5.32163 3.90221,4.84763 2.3979,-0.47289 -0.14997,-4.21676 0.57254,-5.24584 0.89946,-1.28113 5.50756,1.1907 5.43072,-1.64388 -0.0663,-2.44402 -5.07261,-0.80258 -5.27421,-2.2367 -0.25391,-1.80628 2.10286,-4.32413 -0.34113,-5.10334 -2.07576,-0.66181 -2.79871,5.22456 -4.55477,5.08552 l -9.57625,-0.75823 c -1.15001,-0.0911 -1.99392,-0.85673 -1.92425,-2.35703 l 0.80872,-17.415822"
           style="fill:#8fbc8f;stroke:#000000;stroke-width:2;stroke-linecap:round;stroke-linejoin:round;stroke-miterlimit:4;stroke-opacity:1" />
        <path
           style="fill:#8fbc8f;stroke:#000000;stroke-width:2;stroke-linecap:round;stroke-linejoin:round;stroke-miterlimit:4;stroke-opacity:1"
           d="m 728.83659,189.31185 -13.1056,0.70263 c -4.52075,0.24236 -6.91073,2.95281 -6.59579,7.3448 l 0.82164,11.45868 c 0.16255,2.26703 -5.30649,1.55143 -4.80864,3.95016 0.49668,2.39309 4.21506,-0.19184 5.25127,0.52042 1.29,0.88669 -1.13595,5.51911 1.69773,5.41413 2.44325,-0.0906 0.75217,-5.08033 2.18422,-5.29617 1.80366,-0.27183 4.3448,2.05982 5.0997,-0.39179 0.64115,-2.08223 -5.2521,-2.74669 -5.1305,-4.50404 l 0.66309,-9.58331 c 0.0796,-1.15086 0.83689,-2.00233 2.3378,-1.94756 l 17.42302,0.63573"
           id="path882" />
        <path
           style="display:inline;opacity:1;fill:#1e90ff;stroke:#000000;stroke-width:2;stroke-linecap:round;stroke-linejoin:round;stroke-miterlimit:4;stroke-opacity:1"
           d="m 740.82089,112.1162 c 6.66303,5.1807 13.97339,17.3735 5.47505,26.54649 0.81766,-5.16897 -1.86999,-8.62663 -2.88425,-10.33548 0.81225,5.41683 -4.2385,11.51424 -8.515,10.37129 6.15417,-6.11806 2.05745,-18.83208 -2.06049,-24.77822"
           id="path884-3" />
        <path
           style="fill:#8fbc8f;stroke:#000000;stroke-width:2;stroke-linecap:round;stroke-linejoin:round;stroke-miterlimit:4;stroke-opacity:1"
           d="m 751.88407,112.31675 c -6.0138,15.98503 -30.26357,2.39889 -34.37755,-6.14719"
           id="path884" />
      </g>
      <g
         id="g892"
         transform="translate(-8.4189901,2.1381562)">
        <circle
           style="opacity:1;fill:#000000;fill-opacity:1;fill-rule:evenodd;stroke:#090909;stroke-width:2;stroke-linecap:round;stroke-linejoin:round;stroke-miterlimit:4;stroke-opacity:1"
           id="circle888"
           cx="897.5072"
           cy="93.941971"
           r="2.6058779" />
        <circle
           r="1.649839"
           cy="92.619057"
           cx="896.18427"
           id="circle890"
           style="opacity:1;fill:#ffffff;fill-opacity:1;fill-rule:evenodd;stroke:none;stroke-width:1.26624429;stroke-linecap:round;stroke-linejoin:round;stroke-miterlimit:4;stroke-opacity:1" />
      </g>
      <g
         id="g898"
         transform="translate(11.292138,1.7372519)">
        <circle
           r="2.6058779"
           cy="93.941971"
           cx="897.5072"
           id="circle894"
           style="opacity:1;fill:#000000;fill-opacity:1;fill-rule:evenodd;stroke:#090909;stroke-width:2;stroke-linecap:round;stroke-linejoin:round;stroke-miterlimit:4;stroke-opacity:1" />
        <circle
           style="opacity:1;fill:#ffffff;fill-opacity:1;fill-rule:evenodd;stroke:none;stroke-width:1.26624429;stroke-linecap:round;stroke-linejoin:round;stroke-miterlimit:4;stroke-opacity:1"
           id="circle896"
           cx="896.18427"
           cy="92.619057"
           r="1.649839" />
      </g>
    </g>
  </g>
</svg>
